<svg width="360" height="301" viewBox="0 0 360 301" fill="none" xmlns="http://www.w3.org/2000/svg">
<path d="M167.727 280.477L175.909 294.159L177.626 293.133L180 297.103L182.374 293.133L184.091 294.159L192.273 280.477L190.556 279.451L198.738 265.769L200.455 266.795L208.636 253.114L206.92 252.087L215.102 238.405L216.818 239.432L225 225.75L223.284 224.724L231.465 211.042L233.182 212.068L241.364 198.386L239.647 197.36L247.829 183.678L249.545 184.705L257.727 171.023L256.011 169.996L264.193 156.314L265.909 157.341L274.091 143.659L272.374 142.633L280.556 128.951L282.273 129.977L290.455 116.295L288.738 115.269L296.92 101.587L298.636 102.614L306.818 88.9318L305.102 87.9053L313.284 74.2235L315 75.25L323.182 61.5682L321.465 60.5417L329.647 46.8599L331.364 47.8864L339.545 34.2046L337.829 33.1781L346.011 19.4962L347.727 20.5227L355.909 6.84091L354.193 5.81442L356.474 2H351.818V0H335.455V2H319.091V0H302.727V2H286.364V0H270V2H253.636V0H237.273V2H220.909V0H204.545V2H188.182V0H171.818V2H155.455V0H139.091V2H122.727V0H106.364V2H90V0H73.6364V2H57.2727V0H40.9091V2H24.5455V0H8.18182V2H3.52635L5.8074 5.81442L4.0909 6.84091L12.2727 20.5227L13.9892 19.4962L22.171 33.1781L20.4545 34.2046L28.6364 47.8864L30.3529 46.8599L38.5347 60.5417L36.8182 61.5682L45 75.25L46.7165 74.2235L54.8983 87.9053L53.1818 88.9318L61.3637 102.614L63.0801 101.587L71.262 115.269L69.5455 116.295L77.7273 129.977L79.4438 128.951L87.6256 142.633L85.9091 143.659L94.0909 157.341L95.8074 156.314L103.989 169.996L102.273 171.023L110.455 184.705L112.171 183.678L120.353 197.36L118.636 198.386L126.818 212.068L128.535 211.042L136.717 224.724L135 225.75L143.182 239.432L144.898 238.405L153.08 252.087L151.364 253.114L159.545 266.795L161.262 265.769L169.444 279.451L167.727 280.477Z" stroke="#FF6AB9" stroke-width="4" stroke-dasharray="16 16"/>
</svg>
